# xmcd CD database file
# Copyright (C) 1995-1998 Ti Kan
#
# Track frame offsets:
#	150
#	18100
#	41192
#	64232
#	77197
#	89812
#	110722
#	131805
#	147597
#	162367
#	174490
#	191912
#	216525
#	234907
#	250842
#
# Disc length: 3611 seconds
#
# Revision: 2
# Processed by: cddbd v1.4PL0 Copyright (c) Steve Scherf et al.
# Submitted via: CDex 1.30Release
#
DISCID=e70e190f
DTITLE=Boca Roxa Blues Band - Ovelha Negra Graças a Deus
DYEAR=2000
DGENRE=Blues
TTITLE0=Blowin' in the Wind
TTITLE1=Mr. Tambourine Man
TTITLE2=Like a Rolling Stone
TTITLE3=Bourbon prá nóis é pinga
TTITLE4=Vomitaram no trem
TTITLE5=Blues da pamonha
TTITLE6=Patricia fast food
TTITLE7=Last night
TTITLE8=Lillie Mae
TTITLE9=Vila Marieta
TTITLE10=Rebelião no Carandiru
TTITLE11=Vou te virar de ponta cabeça
TTITLE12=Vem quente que eu estou fervendo
TTITLE13=O Jaspion é bundão
TTITLE14=Born to be wild
EXTD=YEAR: 2000 ID3G:   0
EXTT0=
EXTT1=
EXTT2=
EXTT3=
EXTT4=
EXTT5=
EXTT6=
EXTT7=
EXTT8=
EXTT9=
EXTT10=
EXTT11=
EXTT12=
EXTT13=
EXTT14=
PLAYORDER=
